<svg xmlns="http://www.w3.org/2000/svg" viewBox="0 0 960 540" role="img" aria-label="Microscopy artifact removal illustration">
  <defs>
    <linearGradient id="bg" x1="0" y1="0" x2="1" y2="1">
      <stop offset="0" stop-color="#f8f2e7"/>
      <stop offset="1" stop-color="#e8dcc9"/>
    </linearGradient>
  </defs>
  <rect width="960" height="540" rx="42" fill="url(#bg)"/>
  <rect x="58" y="58" width="844" height="424" rx="28" fill="#fff" opacity="0.72"/>
  <circle cx="290" cy="270" r="120" fill="#2a4f83" opacity="0.18"/>
  <circle cx="430" cy="260" r="146" fill="#1b6660" opacity="0.14"/>
  <circle cx="585" cy="252" r="132" fill="#99601d" opacity="0.14"/>
  <g stroke="#1b6660" stroke-width="18" stroke-linecap="round" opacity="0.35">
    <path d="M150 130H820"/>
    <path d="M150 170H820"/>
    <path d="M150 210H820"/>
    <path d="M150 250H820"/>
    <path d="M150 290H820"/>
    <path d="M150 330H820"/>
    <path d="M150 370H820"/>
  </g>
  <path d="M120 410c120-110 210-150 330-150s210 40 390 150" fill="none" stroke="#2a4f83" stroke-width="14" stroke-linecap="round"/>
  <path d="M180 410c90-82 170-114 260-114s170 32 320 114" fill="none" stroke="#fff" stroke-width="14" stroke-linecap="round" opacity="0.9"/>
  <rect x="612" y="102" width="210" height="68" rx="20" fill="#1b6660" opacity="0.95"/>
  <text x="717" y="146" text-anchor="middle" font-family="Aptos, Segoe UI, sans-serif" font-size="28" fill="#fff" font-weight="700">Artifact fix</text>
</svg>
