<svg xmlns="http://www.w3.org/2000/svg" viewBox="0 0 960 540" role="img" aria-label="Cancer diagnosis network illustration">
  <defs>
    <linearGradient id="bg" x1="0" y1="0" x2="1" y2="1">
      <stop offset="0" stop-color="#f8f2e7"/>
      <stop offset="1" stop-color="#e8d6bf"/>
    </linearGradient>
    <linearGradient id="panel" x1="0" y1="0" x2="1" y2="1">
      <stop offset="0" stop-color="#1b6660"/>
      <stop offset="1" stop-color="#2a4f83"/>
    </linearGradient>
  </defs>
  <rect width="960" height="540" rx="42" fill="url(#bg)"/>
  <rect x="50" y="50" width="860" height="440" rx="32" fill="#fff" opacity="0.75"/>
  <circle cx="240" cy="180" r="84" fill="#f1d2c1"/>
  <circle cx="320" cy="260" r="98" fill="#edb68e" opacity="0.9"/>
  <circle cx="390" cy="180" r="66" fill="#d98d6e" opacity="0.95"/>
  <circle cx="660" cy="210" r="120" fill="#1b6660" opacity="0.12"/>
  <circle cx="710" cy="290" r="95" fill="#2a4f83" opacity="0.16"/>
  <g fill="none" stroke="#1b6660" stroke-width="6" stroke-linecap="round">
    <path d="M200 180L350 250L430 180"/>
    <path d="M470 310L610 230L740 290"/>
    <path d="M340 260L480 340L650 240"/>
  </g>
  <g fill="#1b6660">
    <circle cx="200" cy="180" r="11"/>
    <circle cx="350" cy="250" r="11"/>
    <circle cx="430" cy="180" r="11"/>
    <circle cx="470" cy="310" r="11"/>
    <circle cx="610" cy="230" r="11"/>
    <circle cx="740" cy="290" r="11"/>
    <circle cx="340" cy="260" r="11"/>
    <circle cx="480" cy="340" r="11"/>
    <circle cx="650" cy="240" r="11"/>
  </g>
  <rect x="600" y="110" width="240" height="70" rx="20" fill="url(#panel)" opacity="0.95"/>
  <text x="720" y="154" text-anchor="middle" font-family="Aptos, Segoe UI, sans-serif" font-size="28" fill="#fff" font-weight="700">Cancer map</text>
</svg>
